<svg xmlns="http://www.w3.org/2000/svg" width="78.219" height="76.264" viewBox="0 0 78.219 76.264">
  <path id="Icon_simple-adobexd" data-name="Icon simple-adobexd" d="M64.368.45H13.851A13.84,13.84,0,0,0,0,14.3V62.863A13.84,13.84,0,0,0,13.851,76.714H64.368A13.84,13.84,0,0,0,78.219,62.863V14.3A13.84,13.84,0,0,0,64.368.45Zm10.56,61.141a11.808,11.808,0,0,1-11.8,11.863H15.09A11.851,11.851,0,0,1,3.259,61.624V15.54A11.851,11.851,0,0,1,15.09,3.709H63.1A11.831,11.831,0,0,1,74.928,15.54Zm-44-25.454,9.126,17.534c.163.261.065.521-.2.521H34.188a.64.64,0,0,1-.684-.424c-2.086-4.3-4.2-8.6-6.388-13.232h-.065C25.1,44.9,22.944,49.5,20.858,53.8a.626.626,0,0,1-.587.359H14.894c-.326,0-.359-.261-.2-.456l8.93-17.013L14.992,19.483a.263.263,0,0,1,.2-.456h5.606a.513.513,0,0,1,.587.359c2.053,4.3,4.139,8.734,6.095,13.069h.065c1.89-4.3,3.976-8.767,6-13.037.163-.261.261-.424.587-.424H39.37c.261,0,.359.2.2.456ZM41.652,41.45c0-7.594,5.052-13.525,13.069-13.525a14.453,14.453,0,0,1,1.695.065V19.353a.327.327,0,0,1,.326-.326h5.149c.261,0,.326.1.326.261V49.207A23.214,23.214,0,0,0,62.38,52.4c0,.2-.065.261-.261.359a19.414,19.414,0,0,1-8.343,1.89C46.7,54.682,41.652,50.315,41.652,41.45Zm14.764-8.343a4.929,4.929,0,0,0-1.89-.326c-4.107,0-6.975,3.161-6.975,8.409,0,6,2.933,8.409,6.616,8.409a6.149,6.149,0,0,0,2.249-.359V33.107Z" transform="translate(0 -0.45)"/>
</svg>
