<svg xmlns="http://www.w3.org/2000/svg" width="73.024" height="85.163" viewBox="0 0 73.024 85.163">
  <path id="Icon_awesome-android" data-name="Icon awesome-android" d="M13.2,35.062V57.084a5.211,5.211,0,0,1-5.23,5.268c-2.91,0-5.724-2.358-5.724-5.268V35.062c0-2.872,2.814-5.23,5.724-5.23A5.251,5.251,0,0,1,13.2,35.062Zm2.054,29.856a5.616,5.616,0,0,0,5.629,5.629h3.784l.057,11.619c0,7.017,10.5,6.96,10.5,0V70.547H42.3V82.167c0,6.979,10.554,7,10.554,0V70.547h3.841a5.608,5.608,0,0,0,5.591-5.629V30.8H15.257V64.918ZM62.419,28.958H15.048c0-8.139,4.868-15.213,12.095-18.9L23.511,3.342a.733.733,0,1,1,1.274-.723l3.689,6.77a25.693,25.693,0,0,1,20.6,0l3.67-6.751a.733.733,0,1,1,1.274.723l-3.632,6.694C57.55,13.745,62.419,20.819,62.419,28.958ZM29.957,18.4a2,2,0,0,0-2-2,2,2,0,0,0,0,3.993A2,2,0,0,0,29.957,18.4Zm21.565,0a1.968,1.968,0,1,0-1.94,2A1.985,1.985,0,0,0,51.522,18.4ZM69.55,29.833a5.214,5.214,0,0,0-5.23,5.23V57.084a5.247,5.247,0,0,0,5.23,5.268c2.929,0,5.724-2.358,5.724-5.268V35.062C75.274,32.134,72.46,29.833,69.55,29.833Z" transform="translate(-2.25 -2.245)"/>
</svg>
