<svg xmlns="http://www.w3.org/2000/svg" xmlns:xlink="http://www.w3.org/1999/xlink" width="356.739" height="356.739" viewBox="0 0 356.739 356.739">
  <defs>
    <filter id="Rectangle_122" x="55.869" y="90.869" width="245" height="182" filterUnits="userSpaceOnUse">
      <feOffset dy="3" input="SourceAlpha"/>
      <feGaussianBlur stdDeviation="3" result="blur"/>
      <feFlood flood-opacity="0.161"/>
      <feComposite operator="in" in2="blur"/>
      <feComposite in="SourceGraphic"/>
    </filter>
  </defs>
  <g id="designerstoolkit" transform="translate(0.869 0.87)">
    <g id="info_text" data-name="info text" transform="translate(-22 96)" opacity="0">
      <g transform="matrix(1, 0, 0, 1, 21.13, -96.87)" filter="url(#Rectangle_122)">
        <rect id="Rectangle_122-2" data-name="Rectangle 122" width="227" height="164" rx="31" transform="translate(64.87 96.87)" fill="#272727" opacity="0"/>
      </g>
      <text id="A_web-based_application_for_aiding_designers_in_structuring_and_organising_design_sprints." data-name="A web-based application for aiding designers in structuring and organising design sprints." transform="translate(104 26)" fill="#fff" font-size="20" font-family="MongolianBaiti, Mongolian Baiti" opacity="0"><tspan x="1.091" y="17">A web-based application </tspan><tspan x="10.798" y="40">for aiding designers in </tspan><tspan x="40.236" y="63">structuring and </tspan><tspan x="29.675" y="86">organising design </tspan><tspan x="71.33" y="109">sprints.</tspan></text>
    </g>
    <g id="Group_6" data-name="Group 6" transform="translate(-11.873 -0.869)">
      <path id="Path_55" data-name="Path 55" d="M19.375,89.205l14.934-3.984a23.215,23.215,0,0,1,9.877-.7,13.946,13.946,0,0,1,7.465,3.432,14.581,14.581,0,0,1,4.289,7.179,21.078,21.078,0,0,1,.177,11.5,19.413,19.413,0,0,1-5.867,9.243,26.2,26.2,0,0,1-10.877,5.586l-17.431,4.649Zm18.408,25.534a15.05,15.05,0,0,0,6.766-3.631,12.169,12.169,0,0,0,3.424-6.014A14.77,14.77,0,0,0,47.7,97.81a7.991,7.991,0,0,0-4.3-5.456q-3.223-1.557-8.167-.238l-7.085,1.89,1.581,22.881ZM89.022,91.621a21.437,21.437,0,0,1,.678,4.222l-21,5.6q1.933,5.391,8.609,3.61a12.45,12.45,0,0,0,3.8-1.71,10.435,10.435,0,0,0,2.851-2.747l4.741,4.266a16.283,16.283,0,0,1-4.5,4.1,21.839,21.839,0,0,1-5.969,2.558,18.613,18.613,0,0,1-7.843.535,11.979,11.979,0,0,1-6.071-2.945,12.485,12.485,0,0,1-3.442-5.9,16.287,16.287,0,0,1-.179-8.543A14.946,14.946,0,0,1,64.9,87.532a17.286,17.286,0,0,1,7.791-4.279,15.839,15.839,0,0,1,7.283-.386,10.967,10.967,0,0,1,5.686,2.94A12.405,12.405,0,0,1,89.022,91.621ZM73.954,89.2a7.694,7.694,0,0,0-4.324,2.764A8,8,0,0,0,68,96.745l13.608-3.63a5.308,5.308,0,0,0-2.8-3.6A6.565,6.565,0,0,0,73.954,89.2Zm31.69,15.011a30.828,30.828,0,0,1-6.986,1.058,15.828,15.828,0,0,1-5.512-.731l1.492-6.465a16.263,16.263,0,0,0,4.845.694,20.656,20.656,0,0,0,5.393-.687,9.807,9.807,0,0,0,3.846-1.724,2.2,2.2,0,0,0,.785-2.3,1.609,1.609,0,0,0-1.574-1.137,25.381,25.381,0,0,0-4.034.056,38.537,38.537,0,0,1-5.226.105,8.866,8.866,0,0,1-3.895-1.216,6.034,6.034,0,0,1-2.5-3.682,8.106,8.106,0,0,1,1.845-7.956q3.13-3.52,9.3-5.165a26.446,26.446,0,0,1,5.722-.882,17.753,17.753,0,0,1,5.044.426l-1.274,6.461a15.9,15.9,0,0,0-8.672.112,8.7,8.7,0,0,0-3.768,1.81,2.244,2.244,0,0,0-.8,2.253,1.726,1.726,0,0,0,1.6,1.237,28.034,28.034,0,0,0,4.2-.047,34.235,34.235,0,0,1,5.073-.065,7.983,7.983,0,0,1,3.83,1.18,5.769,5.769,0,0,1,2.471,3.583,7.979,7.979,0,0,1-1.947,7.983Q111.76,102.577,105.644,104.209ZM120.618,70.9l7.9-2.108,2,28.353-7.9,2.107Zm4.261-5.164a5.158,5.158,0,0,1-3.683-.253,4.027,4.027,0,0,1-2.078-2.56,4.389,4.389,0,0,1,.512-3.68,5.577,5.577,0,0,1,3.449-2.369,5.032,5.032,0,0,1,3.683.252,3.6,3.6,0,0,1,2.088,2.4,4.651,4.651,0,0,1-.508,3.894A5.714,5.714,0,0,1,124.879,65.735Zm39.306-6.458,1.673,23.608q.578,8.007-2.836,12.676a15.027,15.027,0,0,1-1.575,1.826,19.715,19.715,0,0,1-9.076,4.774,29.37,29.37,0,0,1-7.589,1.058,18.013,18.013,0,0,1-6.443-1.127l2.205-6.655a12.154,12.154,0,0,0,4.761.985,19.127,19.127,0,0,0,5.676-.655q4.026-1.074,5.631-3.381a9.111,9.111,0,0,0,1.413-5.961l-.115-1.2a12.272,12.272,0,0,1-7.528,5.23,14.365,14.365,0,0,1-6.541.3,11.116,11.116,0,0,1-8.721-8.359,14.758,14.758,0,0,1,3.907-14.734,16.32,16.32,0,0,1,7.309-4.043,12.848,12.848,0,0,1,5.939-.3,8.014,8.014,0,0,1,4.668,2.621l-.353-4.631Zm-13.434,24.2a8,8,0,0,0,5.1-3.722,7.794,7.794,0,0,0,.677-6.248,5.043,5.043,0,0,0-2.7-3.415,6.869,6.869,0,0,0-4.938-.24,8.248,8.248,0,0,0-5.2,3.75,7.789,7.789,0,0,0-.677,6.248,5.129,5.129,0,0,0,2.763,3.451A7.24,7.24,0,0,0,150.75,83.478Zm36.677-30.831a11.02,11.02,0,0,1,7.954.456,8.88,8.88,0,0,1,4.573,6.029,15.459,15.459,0,0,1,.544,3.345l1.072,15.715-7.951,2.121-1.035-15.188a8.229,8.229,0,0,0-.309-1.9,4.38,4.38,0,0,0-2.059-2.887,5.179,5.179,0,0,0-3.822-.162,7.733,7.733,0,0,0-4.612,3.109,9.134,9.134,0,0,0-1.274,5.87l1.031,14.383-7.951,2.121-2-28.352,7.544-2.012.192,3.063A13.318,13.318,0,0,1,187.427,52.648Zm47.182.141a21.473,21.473,0,0,1,.678,4.222l-21,5.6Q216.22,68,222.9,66.221a12.456,12.456,0,0,0,3.8-1.71,10.444,10.444,0,0,0,2.851-2.747l4.741,4.266a16.268,16.268,0,0,1-4.5,4.1,21.833,21.833,0,0,1-5.969,2.559,18.612,18.612,0,0,1-7.843.535,11.975,11.975,0,0,1-6.071-2.945,12.486,12.486,0,0,1-3.442-5.9,16.287,16.287,0,0,1-.179-8.543,14.95,14.95,0,0,1,4.207-7.136,17.286,17.286,0,0,1,7.791-4.279,15.84,15.84,0,0,1,7.283-.386,10.971,10.971,0,0,1,5.686,2.94A12.412,12.412,0,0,1,234.609,52.788Zm-15.068-2.424a7.691,7.691,0,0,0-4.324,2.764,8,8,0,0,0-1.63,4.784l13.608-3.63a5.308,5.308,0,0,0-2.8-3.6A6.562,6.562,0,0,0,219.541,50.364ZM246.9,40.651a10.578,10.578,0,0,1,3.519-3.891,19.42,19.42,0,0,1,5.728-2.441l.569,7.58q-1.455.28-1.863.389a9.264,9.264,0,0,0-5.326,3.3,9.388,9.388,0,0,0-1.395,6.224l.953,13.706L241.13,67.64l-2-28.353,7.544-2.012Zm17.571-19.506a4.726,4.726,0,0,1,3.66.366,4.475,4.475,0,0,1,2.226,2.9,5.573,5.573,0,0,1,.16,2.159,12.9,12.9,0,0,1-.66,2.754l-2.815,9.395-5.045,1.346,1.642-9.083a4.893,4.893,0,0,1-1.908-1.156,4.994,4.994,0,0,1-1.119-2.064A5.079,5.079,0,0,1,261.1,23.6,5.4,5.4,0,0,1,264.466,21.145Zm23,34.565a30.835,30.835,0,0,1-6.987,1.058,15.826,15.826,0,0,1-5.512-.731l1.492-6.465a16.264,16.264,0,0,0,4.845.694,20.657,20.657,0,0,0,5.393-.687,9.814,9.814,0,0,0,3.846-1.724,2.2,2.2,0,0,0,.785-2.3,1.609,1.609,0,0,0-1.574-1.137,25.386,25.386,0,0,0-4.035.056,38.53,38.53,0,0,1-5.225.105,8.869,8.869,0,0,1-3.9-1.216,6.036,6.036,0,0,1-2.5-3.682,8.108,8.108,0,0,1,1.846-7.956q3.13-3.52,9.3-5.165a26.44,26.44,0,0,1,5.721-.882,17.758,17.758,0,0,1,5.045.426l-1.275,6.461a15.9,15.9,0,0,0-8.672.112,8.692,8.692,0,0,0-3.768,1.81,2.243,2.243,0,0,0-.8,2.253,1.725,1.725,0,0,0,1.6,1.237,28.036,28.036,0,0,0,4.2-.047,34.23,34.23,0,0,1,5.072-.065,7.983,7.983,0,0,1,3.83,1.18,5.772,5.772,0,0,1,2.471,3.583,7.979,7.979,0,0,1-1.947,7.983Q293.582,54.079,287.466,55.71ZM95.019,140.846,83.6,143.892l-.453-6.967,31.09-8.293.453,6.967-11.366,3.032,2.062,29.948-8.257,2.2Zm37.364,20.96a17.458,17.458,0,0,1-7.7.445,12.166,12.166,0,0,1-6.006-2.908,12.486,12.486,0,0,1-3.442-5.9,15.489,15.489,0,0,1,4.283-15.747,17.994,17.994,0,0,1,7.944-4.32,17.247,17.247,0,0,1,7.7-.444,11.691,11.691,0,0,1,5.969,2.972,11.947,11.947,0,0,1,3.479,5.837,15.678,15.678,0,0,1,.076,8.57,15.136,15.136,0,0,1-4.36,7.177A17.985,17.985,0,0,1,132.383,161.807Zm-1.278-6.585a7.7,7.7,0,0,0,5.8-6.113,10.332,10.332,0,0,0-.256-4.872,6.1,6.1,0,0,0-2.837-3.914,6.539,6.539,0,0,0-5.03-.376,7.9,7.9,0,0,0-3.861,2.265,7.653,7.653,0,0,0-1.995,3.861,10.318,10.318,0,0,0,.256,4.872,6.1,6.1,0,0,0,2.836,3.915A6.732,6.732,0,0,0,131.106,155.222Zm34.626-2.31a17.462,17.462,0,0,1-7.7.445,12.169,12.169,0,0,1-6.006-2.908,12.48,12.48,0,0,1-3.442-5.9,15.488,15.488,0,0,1,4.283-15.747,17.994,17.994,0,0,1,7.944-4.32,17.25,17.25,0,0,1,7.7-.444,11.692,11.692,0,0,1,5.969,2.972,11.946,11.946,0,0,1,3.479,5.838,15.681,15.681,0,0,1,.077,8.57,15.138,15.138,0,0,1-4.36,7.177A17.986,17.986,0,0,1,165.732,152.911Zm-1.278-6.585a7.7,7.7,0,0,0,5.8-6.113,10.33,10.33,0,0,0-.256-4.871,6.1,6.1,0,0,0-2.837-3.915,6.539,6.539,0,0,0-5.031-.376,7.9,7.9,0,0,0-3.861,2.265,7.653,7.653,0,0,0-1.995,3.861,10.325,10.325,0,0,0,.256,4.872,6.1,6.1,0,0,0,2.837,3.915A6.73,6.73,0,0,0,164.454,146.326Zm17.453-38,7.951-2.121,2.74,39.11-7.951,2.121Zm34.3,14.37,13.642,12.684-9.225,2.461-9.42-8.709-3.747,5.242.477,6.853-7.951,2.121-2.741-39.109,7.951-2.121,1.521,21.877,10.225-14.057,10.346-2.76Zm14.423-16.412,7.9-2.107,2,28.352-7.9,2.108Zm4.262-5.164a5.156,5.156,0,0,1-3.683-.252,4.029,4.029,0,0,1-2.078-2.56,4.391,4.391,0,0,1,.512-3.681,5.58,5.58,0,0,1,3.449-2.369,5.035,5.035,0,0,1,3.683.252,3.6,3.6,0,0,1,2.087,2.4,4.653,4.653,0,0,1-.508,3.894A5.711,5.711,0,0,1,234.887,101.122Zm21.194,17.059a4.839,4.839,0,0,0,.2,1.127q.721,2.6,3.626,1.825a6.516,6.516,0,0,0,2.948-1.806l2.711,5.236a13.406,13.406,0,0,1-6.386,3.422,9.641,9.641,0,0,1-6.773-.341,7.18,7.18,0,0,1-3.869-4.874,13.339,13.339,0,0,1-.4-2.418l-.816-11.434-4.23,1.128-.44-6.326,4.23-1.128-.49-6.9,7.951-2.121.49,6.9,6.829-1.822.44,6.326-6.829,1.822Z" transform="translate(31.547 85.601)" fill="#fff"/>
      <path id="Path_56" data-name="Path 56" d="M366.873,178.369A177.5,177.5,0,1,1,189.372.869,177.5,177.5,0,0,1,366.873,178.369Z" transform="translate(0)" fill="none" stroke="#fff" stroke-width="1.739"/>
    </g>
  </g>
</svg>
