<svg xmlns="http://www.w3.org/2000/svg" width="55.52" height="81.781" viewBox="0 0 55.52 81.781">
  <g id="Icon_feather-figma" data-name="Icon feather-figma" transform="translate(-6 -1.5)">
    <path id="Path_8" data-name="Path 8" d="M7.5,16.13A13.13,13.13,0,0,1,20.63,3H33.76V29.26H20.63A13.13,13.13,0,0,1,7.5,16.13Z" transform="translate(0 0)" fill="none" stroke="#000" stroke-linecap="round" stroke-linejoin="round" stroke-width="3"/>
    <path id="Path_9" data-name="Path 9" d="M18,3H31.13a13.13,13.13,0,1,1,0,26.26H18Z" transform="translate(15.76 0)" fill="none" stroke="#000" stroke-linecap="round" stroke-linejoin="round" stroke-width="3"/>
    <path id="Path_10" data-name="Path 10" d="M18,26.63A13.13,13.13,0,1,1,31.13,39.76,13.13,13.13,0,0,1,18,26.63Z" transform="translate(15.76 15.76)" fill="none" stroke="#000" stroke-linecap="round" stroke-linejoin="round" stroke-width="3"/>
    <path id="Path_11" data-name="Path 11" d="M7.5,37.13A13.13,13.13,0,0,1,20.63,24H33.76V37.13a13.13,13.13,0,0,1-26.26,0Z" transform="translate(0 31.52)" fill="none" stroke="#000" stroke-linecap="round" stroke-linejoin="round" stroke-width="3"/>
    <path id="Path_12" data-name="Path 12" d="M7.5,26.63A13.13,13.13,0,0,1,20.63,13.5H33.76V39.76H20.63A13.13,13.13,0,0,1,7.5,26.63Z" transform="translate(0 15.76)" fill="none" stroke="#000" stroke-linecap="round" stroke-linejoin="round" stroke-width="3"/>
  </g>
</svg>
