<svg xmlns="http://www.w3.org/2000/svg" width="78.219" height="78.731" viewBox="0 0 78.219 78.731">
  <path id="Icon_simple-adobeillustrator" data-name="Icon simple-adobeillustrator" d="M0,.45V79.181H78.219V.45ZM3.259,3.815h71.7v72H3.259ZM27.132,45.031,24.551,55.118c-.055.279-.163.343-.482.343H19.284c-.326,0-.375-.111-.326-.5L28.214,21.5a10.7,10.7,0,0,0,.319-2.8c0-.222.108-.336.271-.336h6.831c.215,0,.326.061.378.336l10.38,36.317c.055.279,0,.444-.271.444H40.746c-.271,0-.43-.067-.482-.289L37.575,45.027H27.123Zm9.086-5.467c-.913-3.721-3.064-11.87-3.872-15.814h-.055c-.7,3.937-2.418,10.6-3.764,15.814Zm14.666-18.7a3.336,3.336,0,1,1,6.668,0A3.171,3.171,0,0,1,54.164,24.3a3.115,3.115,0,0,1-3.292-3.442Zm.365,7.651c0-.269.108-.37.378-.37h5.117c.287,0,.391.111.391.39V55.1c0,.279-.052.39-.375.39H51.709c-.326,0-.433-.168-.433-.437V28.511Z" transform="translate(0 -0.45)"/>
</svg>
