<svg xmlns="http://www.w3.org/2000/svg" width="71.898" height="71.898" viewBox="0 0 71.898 71.898">
  <path id="Icon_simple-javascript" data-name="Icon simple-javascript" d="M0,0H71.9V71.9H0ZM66.009,54.75c-.524-3.28-2.66-6.036-9-8.607-2.2-1.034-4.655-1.753-5.383-3.415a3.537,3.537,0,0,1-.138-2.112c.449-1.935,2.741-2.516,4.539-1.977a4.873,4.873,0,0,1,2.924,2.7c3.1-2.025,3.1-2.025,5.258-3.37a12.365,12.365,0,0,0-1.756-2.337c-1.887-2.112-4.4-3.19-8.49-3.1l-2.112.267a9.657,9.657,0,0,0-5.123,3.011c-3.415,3.868-2.43,10.608,1.7,13.394,4.089,3.056,10.069,3.727,10.833,6.606.719,3.505-2.606,4.628-5.89,4.224-2.43-.539-3.775-1.756-5.258-4l-5.482,3.149A12.115,12.115,0,0,0,45.065,62.5c5.213,5.261,18.244,4.991,20.584-3.008a10.139,10.139,0,0,0,.222-4.943l.138.2ZM39.1,33.046H32.363c0,5.806-.027,11.576-.027,17.39,0,3.691.189,7.079-.413,8.121-.989,2.064-3.535,1.8-4.691,1.438a5.78,5.78,0,0,1-2.486-2.561,2.57,2.57,0,0,0-.38-.587L18.9,60.218a10.6,10.6,0,0,0,3.966,4.545,13.184,13.184,0,0,0,9.607,1.213A8.414,8.414,0,0,0,37.9,61.749c1.528-2.786,1.2-6.2,1.189-10.024.036-6.153,0-12.31,0-18.511l.012-.168Z"/>
</svg>
