<svg xmlns="http://www.w3.org/2000/svg" width="71.374" height="96.809" viewBox="0 0 71.374 96.809">
  <path id="Icon_awesome-java" data-name="Icon awesome-java" d="M52.164,59.163A30.566,30.566,0,0,1,56.588,56.8s-7.317,1.324-14.6,1.929c-8.906.737-18.473.889-23.276.246-11.364-1.513,6.24-5.691,6.24-5.691a33.488,33.488,0,0,0-15.24,3.592C-.211,61.677,34.3,63.871,52.164,59.163ZM36.016,53.093c-3.592-8.074-15.712-15.164,0-27.568C55.616,10.059,45.565,0,45.565,0,49.63,15.977,31.27,20.818,24.634,30.744c-4.519,6.788,2.212,14.067,11.383,22.349ZM57.685,19.778c.019,0-33.127,8.282-17.3,26.509,4.67,5.37-1.229,10.21-1.229,10.21s11.855-6.126,6.41-13.784c-5.086-7.147-8.981-10.7,12.12-22.935ZM56.531,70.923a2.3,2.3,0,0,1-.378.492c24.259-6.372,15.334-22.481,3.744-18.4a3.277,3.277,0,0,0-1.55,1.191,13.321,13.321,0,0,1,2.08-.567C66.288,52.412,74.7,61.488,56.531,70.923ZM65.448,82.7s2.742,2.25-3.006,4.008c-10.948,3.309-45.53,4.311-55.135.132-3.46-1.494,3.025-3.592,5.067-4.027a13.717,13.717,0,0,1,3.347-.378c-3.838-2.7-24.826,5.313-10.664,7.6C43.674,96.316,75.469,87.222,65.448,82.7Zm-42.27-7.828c-14.88,4.16,9.057,12.744,28,4.632A35.15,35.15,0,0,1,45.848,76.9c-8.452,1.607-12.366,1.721-20.042.851-6.334-.718-2.628-2.874-2.628-2.874Zm34,18.378c-14.88,2.8-33.24,2.477-44.112.681,0-.019,2.231,1.834,13.689,2.571,17.433,1.116,44.206-.624,44.83-8.868,0,0-1.21,3.12-14.408,5.616ZM48.93,66.745c-11.193,2.155-17.679,2.1-25.866,1.248-6.334-.662-2.193-3.725-2.193-3.725-16.412,5.445,9.114,11.609,32.049,4.9a11.415,11.415,0,0,1-3.99-2.42Z" transform="translate(-0.208)"/>
</svg>
