<svg xmlns="http://www.w3.org/2000/svg" width="72" height="72" viewBox="0 0 72 72">
  <g id="mail" transform="translate(-910 -1528)">
    <rect id="Rectangle_130" data-name="Rectangle 130" width="72" height="72" rx="11" transform="translate(910 1528)" fill="#fff"/>
    <g id="Icon_ionic-ios-mail" data-name="Icon ionic-ios-mail" transform="translate(915.467 1537.323)">
      <path id="Path_57" data-name="Path 57" d="M57.248,10.394,43.2,24.7a.252.252,0,0,0,0,.366L53.03,35.542a1.694,1.694,0,0,1,0,2.4,1.7,1.7,0,0,1-2.4,0L40.835,27.512a.268.268,0,0,0-.379,0L38.067,29.94a10.513,10.513,0,0,1-7.495,3.16,10.724,10.724,0,0,1-7.651-3.251l-2.3-2.337a.268.268,0,0,0-.379,0L10.452,37.944a1.7,1.7,0,0,1-2.4,0,1.694,1.694,0,0,1,0-2.4L17.881,25.07a.278.278,0,0,0,0-.366L3.819,10.394a.257.257,0,0,0-.444.183V39.211a4.19,4.19,0,0,0,4.178,4.178h45.96a4.19,4.19,0,0,0,4.178-4.178V10.577A.261.261,0,0,0,57.248,10.394Z" transform="translate(0 2.09)" fill="#0274b3"/>
      <path id="Path_58" data-name="Path 58" d="M29.8,31.782a7.1,7.1,0,0,0,5.105-2.141L55.4,8.789a4.1,4.1,0,0,0-2.585-.914h-46a4.077,4.077,0,0,0-2.585.914L24.712,29.641A7.1,7.1,0,0,0,29.8,31.782Z" transform="translate(0.729)" fill="#0274b3"/>
    </g>
  </g>
</svg>
