<svg xmlns="http://www.w3.org/2000/svg" width="87.03" height="76.155" viewBox="0 0 87.03 76.155">
  <path id="Icon_awesome-react" data-name="Icon awesome-react" d="M71.086,26.93q-1.377-.459-2.754-.867c.153-.629.289-1.258.425-1.887,2.091-10.131.714-18.273-3.927-20.959-4.47-2.567-11.763.1-19.14,6.527-.731.629-1.445,1.292-2.125,1.955-.459-.442-.935-.884-1.411-1.309C34.421,3.524,26.67.634,22.029,3.337c-4.453,2.584-5.779,10.25-3.91,19.837.187.952.391,1.887.629,2.839-1.088.306-2.159.646-3.162,1C6.51,30.16,0,35.123,0,40.256,0,45.56,6.935,50.88,16.369,54.11c.765.255,1.53.51,2.312.731-.255,1.02-.476,2.023-.68,3.06-1.785,9.434-.391,16.913,4.063,19.48,4.589,2.652,12.307-.068,19.82-6.646.595-.527,1.19-1.071,1.785-1.649.748.731,1.53,1.428,2.312,2.108,7.275,6.255,14.465,8.788,18.9,6.221,4.589-2.652,6.085-10.692,4.148-20.483q-.229-1.122-.51-2.295c.544-.153,1.071-.323,1.6-.493,9.808-3.247,16.913-8.5,16.913-13.887,0-5.15-6.7-10.148-15.944-13.326Zm-23-14.431c6.323-5.507,12.222-7.666,14.907-6.119,2.873,1.649,3.978,8.312,2.176,17.066-.119.578-.238,1.139-.391,1.7a87.018,87.018,0,0,0-11.44-1.8A85.882,85.882,0,0,0,46.1,14.317c.663-.629,1.309-1.224,1.989-1.819ZM28.421,49.078c.867,1.479,1.751,2.958,2.686,4.4a76.97,76.97,0,0,1-7.887-1.275,79.4,79.4,0,0,1,2.771-7.564c.782,1.5,1.581,2.975,2.431,4.436ZM23.27,28.63c2.448-.544,5.048-.986,7.751-1.326-.9,1.411-1.785,2.856-2.618,4.318-.833,1.445-1.649,2.924-2.414,4.419-1.071-2.533-1.972-5.014-2.72-7.411Zm4.657,11.712c1.122-2.346,2.346-4.64,3.638-6.9s2.686-4.453,4.148-6.612c2.55-.187,5.15-.289,7.8-.289s5.269.1,7.8.289q2.167,3.213,4.131,6.578t3.689,6.867q-1.708,3.519-3.672,6.935c-1.292,2.261-2.669,4.453-4.114,6.629-2.533.187-5.167.272-7.836.272s-5.252-.085-7.751-.238q-2.218-3.238-4.182-6.629c-1.309-2.261-2.516-4.555-3.655-6.9Zm30.7,8.7c.867-1.5,1.683-3.009,2.482-4.538a78.906,78.906,0,0,1,2.873,7.53,74.662,74.662,0,0,1-7.989,1.36C56.91,51.968,57.776,50.506,58.626,49.044Zm2.448-13c-.8-1.5-1.615-2.992-2.465-4.453q-1.249-2.167-2.6-4.284a78.222,78.222,0,0,1,7.8,1.36,75.226,75.226,0,0,1-2.737,7.377ZM43.549,16.918A74.642,74.642,0,0,1,48.58,23c-3.366-.153-6.748-.153-10.114,0C40.132,20.811,41.849,18.771,43.549,16.918ZM23.831,6.5c2.856-1.666,9.2.714,15.876,6.629.425.374.85.782,1.292,1.19a86.359,86.359,0,0,0-7.292,9.026,89.6,89.6,0,0,0-11.423,1.768c-.221-.867-.408-1.751-.595-2.635-1.6-8.227-.544-14.431,2.142-15.978ZM19.667,51.305c-.714-.2-1.411-.425-2.108-.663a34.668,34.668,0,0,1-10.709-5.3,7.627,7.627,0,0,1-3.2-5.082c0-3.111,5.371-7.088,13.123-9.791.969-.34,1.955-.646,2.941-.935a90.386,90.386,0,0,0,4.165,10.811,92.915,92.915,0,0,0-4.216,10.964Zm19.82,16.658a31.112,31.112,0,0,1-9.587,6,7.523,7.523,0,0,1-6,.221c-2.7-1.564-3.825-7.564-2.295-15.638.187-.952.391-1.9.629-2.839a85.036,85.036,0,0,0,11.542,1.666,89.7,89.7,0,0,0,7.343,9.077C40.574,66.977,40.03,67.487,39.487,67.963Zm4.165-4.131c-1.734-1.87-3.468-3.944-5.15-6.17,1.632.068,3.315.1,5.014.1,1.751,0,3.468-.034,5.167-.119a73.3,73.3,0,0,1-5.031,6.187Zm22.216,5.1a7.554,7.554,0,0,1-2.8,5.32c-2.7,1.564-8.465-.476-14.686-5.813-.714-.612-1.428-1.275-2.159-1.955a84.088,84.088,0,0,0,7.173-9.111,83.8,83.8,0,0,0,11.593-1.785c.17.7.323,1.394.459,2.074a30.986,30.986,0,0,1,.425,11.27Zm3.094-18.273c-.476.153-.952.306-1.445.442a86.349,86.349,0,0,0-4.335-10.845,85.919,85.919,0,0,0,4.165-10.692c.884.255,1.734.527,2.55.8,7.921,2.72,13.479,6.765,13.479,9.859,0,3.332-5.932,7.632-14.414,10.437ZM43.515,48.11a7.785,7.785,0,1,0-7.785-7.785A7.784,7.784,0,0,0,43.515,48.11Z" transform="translate(0 -2.251)"/>
</svg>
